<svg width="16" height="16" viewBox="0 0 16 16" fill="none" xmlns="http://www.w3.org/2000/svg">
<rect width="16" height="16" rx="4" fill="#3A4D8C"/>
<path d="M4.41975 10.07C3.67775 10.07 3.11541 9.867 2.73275 9.461C2.35475 9.055 2.16575 8.50667 2.16575 7.816C2.16575 7.32133 2.24508 6.89667 2.40375 6.542C2.56708 6.18267 2.81441 5.90733 3.14575 5.716C3.47708 5.52 3.89941 5.422 4.41275 5.422C4.67408 5.422 4.91208 5.443 5.12675 5.485C5.34608 5.52233 5.54908 5.57367 5.73575 5.639V6.304C5.54908 6.22933 5.34841 6.17333 5.13375 6.136C4.92375 6.094 4.70208 6.073 4.46875 6.073C3.90875 6.073 3.51208 6.22233 3.27875 6.521C3.05008 6.81967 2.93575 7.25133 2.93575 7.816C2.93575 8.34333 3.06175 8.74467 3.31375 9.02C3.56575 9.29067 3.95541 9.426 4.48275 9.426C4.69741 9.426 4.91208 9.40967 5.12675 9.377C5.34608 9.33967 5.55141 9.28367 5.74275 9.209V9.881C5.55608 9.94167 5.35308 9.98833 5.13375 10.021C4.91908 10.0537 4.68108 10.07 4.41975 10.07ZM6.4825 10V5.492H8.6665C9.1145 5.492 9.44584 5.597 9.6605 5.807C9.87517 6.017 9.9825 6.31333 9.9825 6.696C9.9825 6.93867 9.9335 7.144 9.8355 7.312C9.7375 7.47533 9.60684 7.599 9.4435 7.683C9.66284 7.74367 9.8355 7.85333 9.9615 8.012C10.0922 8.166 10.1575 8.39467 10.1575 8.698C10.1575 9.13667 10.0385 9.46333 9.8005 9.678C9.56717 9.89267 9.22184 10 8.7645 10H6.4825ZM7.2455 7.417H8.5615C8.81817 7.417 9.00017 7.35867 9.1075 7.242C9.2195 7.12067 9.2755 6.95967 9.2755 6.759C9.2755 6.52567 9.2195 6.353 9.1075 6.241C8.9955 6.12433 8.7855 6.066 8.4775 6.066H7.2455V7.417ZM7.2455 9.44H8.6035C8.87417 9.44 9.0725 9.384 9.1985 9.272C9.3245 9.15533 9.3875 8.95467 9.3875 8.67C9.3875 8.43667 9.3245 8.264 9.1985 8.152C9.07717 8.03533 8.85317 7.977 8.5265 7.977H7.2455V9.44ZM10.8985 10V5.492H11.6615V9.412H13.9715V10H10.8985Z" fill="white"/>
</svg>
